<svg width="40" height="32" viewBox="0 0 40 32" fill="none" xmlns="http://www.w3.org/2000/svg">
<path d="M17.9192 0.587154L10.505 7.99965H2C0.895 7.99965 0 8.89465 0 9.99965V21.9997C0 23.1038 0.895 23.9997 2 23.9997H10.505L17.9192 31.4122C19.1717 32.6647 21.3333 31.7847 21.3333 29.998V2.00132C21.3333 0.212986 19.17 -0.663679 17.9192 0.587154ZM40 15.9997C40 10.7055 37.3283 5.83799 32.8525 2.97965C31.92 2.38465 30.6833 2.66132 30.0925 3.60132C29.5017 4.54132 29.7775 5.78549 30.71 6.38132C34.0225 8.49715 36 12.0922 36 15.9997C36 19.9072 34.0225 23.5022 30.71 25.618C29.7775 26.213 29.5017 27.4572 30.0925 28.398C30.635 29.2613 31.8525 29.6597 32.8525 29.0197C37.3283 26.1613 40 21.2947 40 15.9997ZM28.1858 9.59382C27.2208 9.06632 26.0033 9.41382 25.4683 10.3813C24.9358 11.3488 25.2883 12.5647 26.2558 13.0988C27.3317 13.6897 28 14.8022 28 15.9997C28 17.198 27.3317 18.3097 26.2567 18.9005C25.2892 19.4347 24.9367 20.6505 25.4692 21.618C26.005 22.5897 27.2233 22.9347 28.1867 22.4055C30.5392 21.1097 32.0008 18.6555 32.0008 15.9988C32.0008 13.3422 30.5392 10.8888 28.1858 9.59382Z" fill="#6C757D"/>
</svg>
