<svg width="101" height="101" viewBox="0 0 101 101" fill="none" xmlns="http://www.w3.org/2000/svg">
<path d="M85.5644 14.6355H64.8355L50.2 0L35.5644 14.6355H14.8355V35.3645L0.199951 50.0569L14.8355 64.6925V85.4214H35.5644L50.2 100.057L64.8355 85.4214H85.5644V64.6925L100.2 50.0569L85.5644 35.4214V14.6355ZM85.9061 50.0569C85.9061 69.7608 69.9038 85.7631 50.2 85.7631C30.4961 85.7631 14.4938 69.7608 14.4938 50.0569C14.4938 30.3531 30.4961 14.3508 50.2 14.3508C69.9038 14.3508 85.9061 30.3531 85.9061 50.0569Z" fill="#FBBC05"/>
<path d="M50.1999 18.9065C33.0017 18.9065 19.0496 32.8587 19.0496 50.0568C19.0496 67.255 33.0017 81.2072 50.1999 81.2072C67.3981 81.2072 81.3502 67.255 81.3502 50.0568C81.3502 32.8587 67.3981 18.9065 50.1999 18.9065ZM41.0313 38.4965V43.6218L32.7739 50.0568L41.0313 56.4919V61.6172L40.4619 61.2186L28.2181 51.6514L27.4209 51.0249V49.0887L28.2181 48.4623L40.4619 38.9521L41.0313 38.4965ZM55.7238 35.5352L48.9471 65.4896L48.8901 65.7174H44.676L44.9038 64.5785L51.6805 34.681L51.7375 34.4532H55.9516L55.7238 35.5352ZM72.9789 51.0249L72.1817 51.6514L59.881 61.1616L59.3115 61.5602V56.435L67.5689 49.9999L59.3115 43.5648V38.4395L59.881 38.8382L72.1247 48.4054L72.922 49.0318V51.0249H72.9789Z" fill="#FBBC05"/>
</svg>
